<svg xmlns="http://www.w3.org/2000/svg" width="492.056" height="288.145" viewBox="0 0 492.056 288.145">
  <g id="error-404" transform="translate(-3.991 -5.945)">
    <path id="Path_1" data-name="Path 1" d="M299.73,256.79q-.06-2.87-.21-5.83-2-37.08-17-55.8t-41.29-17.3q-26.34,1.42-39.17,21.66t-10.84,57.27Z" fill="none" stroke="#00a65a" stroke-miterlimit="10" stroke-width="2"/>
    <path id="Path_2" data-name="Path 2" d="M218.09,256.79H273c0-1.43-.11-2.89-.19-4.38Q271.2,223.55,264,211t-21.56-11.82q-14.32.78-20.14,14.19-6,13.74-4.19,43.46Z" fill="#eff1ff"/>
    <path id="Path_3" data-name="Path 3" d="M218.09,256.79H273c0-1.43-.11-2.89-.19-4.38Q271.2,223.55,264,211t-21.56-11.82q-14.32.78-20.14,14.19-6,13.74-4.19,43.46Z" fill="none" stroke="#00a65a" stroke-miterlimit="10" stroke-width="2"/>
    <path id="Path_4" data-name="Path 4" d="M444.57,256.79a1,1,0,0,1-1,1H60.87a1,1,0,0,1-.95-1h0a1,1,0,0,1,.95-1H443.61a1,1,0,0,1,1,1Z" fill="#00a65a"/>
    <path id="Path_5" data-name="Path 5" d="M57.94,100.53a6.46,6.46,0,0,0,6.46-5.44,12.539,12.539,0,0,0,.12-1.75,12.71,12.71,0,0,0-12.71-12.7h-.85A13.5,13.5,0,0,0,24,81.81v1a13.36,13.36,0,0,0-7.2-1.7A13.55,13.55,0,0,0,4,93.61v.16a6.43,6.43,0,0,0,6.45,6.76Z" fill="#e1e6ff" opacity="0.5"/>
    <path id="Path_6" data-name="Path 6" d="M487,141.87c11.54,0,12.3-17.38.78-18h-1.13a19.38,19.38,0,0,0-5.94.93,19.94,19.94,0,0,0-39.43.63,18.38,18.38,0,0,0-7.94-1.79,18.06,18.06,0,0,0-4.44.54c-10.27,2.55-8.27,17.77,2.31,17.77Z" fill="#e1e6ff" opacity="0.5"/>
    <path id="Path_7" data-name="Path 7" d="M377.41,57.19c12.76,0,13.59-19.21.86-19.94h-1.25a21.5,21.5,0,0,0-6.56,1,22,22,0,0,0-43.58.7,20.32,20.32,0,0,0-13.67-1.39c-11.35,2.81-9.15,19.64,2.55,19.64Z" fill="#e1e6ff" opacity="0.5"/>
    <g id="Group_1" data-name="Group 1" opacity="0.5">
      <path id="Path_8" data-name="Path 8" d="M66.81,24.06l-2.78,3.87-2.78,3.86L59.3,27.45l-1.96-4.34,4.74.48Z" fill="#dae0f7"/>
      <path id="Path_9" data-name="Path 9" d="M362.97,98.71l-3.4,5.53-3.39,5.53-3.1-5.7-3.09-5.71,6.49.17Z" fill="#dae0f7"/>
      <path id="Path_10" data-name="Path 10" d="M468.75,169.32l3.6,2.43,3.59,2.44-3.91,1.89-3.9,1.89.31-4.32Z" fill="#dae0f7"/>
      <path id="Path_11" data-name="Path 11" d="M126.81,72.6l3.63-1.17,3.63-1.17-.8,3.73-.8,3.73-2.83-2.56Z" fill="#dae0f7"/>
      <path id="Path_12" data-name="Path 12" d="M56.82,153.96l5.17,1.01h5.18l-2.55,3.91-2.55,4.5-2.62-4.46Z" fill="#dae0f7"/>
      <path id="Path_13" data-name="Path 13" d="M277.04,21.66l4.63,2.31,4.63,2.3-4.31,2.86-4.31,2.86-.32-5.17Z" fill="#dae0f7"/>
      <path id="Path_14" data-name="Path 14" d="M448.92,34.22l2.45,1.22,2.46,1.22-2.29,1.52-2.28,1.52-.17-2.74Z" fill="#dae0f7"/>
    </g>
    <path id="Path_15" data-name="Path 15" d="M223.69,159.57,285.2,141.5a2.16,2.16,0,0,0,1.47-2.69l-25.1-85.49a2.19,2.19,0,0,0-2.7-1.48L216.76,64.21a2.19,2.19,0,0,0-1.28,1L201.56,89.54a2.13,2.13,0,0,0-.2,1.69L221,158.09a2.17,2.17,0,0,0,2.69,1.48Z" fill="#fff"/>
    <path id="Path_16" data-name="Path 16" d="M223.69,159.57,285.2,141.5a2.16,2.16,0,0,0,1.47-2.69l-25.1-85.49a2.19,2.19,0,0,0-2.7-1.48L216.76,64.21a2.19,2.19,0,0,0-1.28,1L201.56,89.54a2.13,2.13,0,0,0-.2,1.69L221,158.09a2.17,2.17,0,0,0,2.69,1.48Z" fill="none" stroke="#00a65a" stroke-linecap="round" stroke-linejoin="round" stroke-width="2"/>
    <path id="Path_17" data-name="Path 17" d="M216.46,65.54,221.6,83a2.33,2.33,0,0,1-1.6,2.91l-18.28,5.45" fill="#fff" stroke="#00a65a" stroke-linecap="round" stroke-linejoin="round" stroke-width="2"/>
    <rect id="Rectangle_1" data-name="Rectangle 1" width="4.65" height="16.29" rx="2" transform="translate(224.387 131.608) rotate(-16.26)" fill="#e3e7fe"/>
    <rect id="Rectangle_2" data-name="Rectangle 2" width="4.65" height="11.64" rx="2" transform="matrix(0.959, -0.282, 0.282, 0.959, 243.669, 130.341)" fill="#e3e7fe"/>
    <rect id="Rectangle_3" data-name="Rectangle 3" width="4.65" height="16.29" rx="2" transform="matrix(0.959, -0.282, 0.282, 0.959, 251.29, 123.249)" fill="#e3e7fe"/>
    <rect id="Rectangle_4" data-name="Rectangle 4" width="4.65" height="20.94" rx="2" transform="matrix(0.959, -0.282, 0.282, 0.959, 232.112, 124.031)" fill="#e3e7fe"/>
    <line id="Line_1" data-name="Line 1" y1="12.13" x2="41.3" transform="translate(215.49 88.34)" fill="none" stroke="#c4cefe" stroke-linecap="round" stroke-linejoin="round" stroke-width="2"/>
    <line id="Line_2" data-name="Line 2" y1="12.13" x2="41.31" transform="translate(217.45 95.03)" fill="none" stroke="#c4cefe" stroke-linecap="round" stroke-linejoin="round" stroke-width="2"/>
    <line id="Line_3" data-name="Line 3" y1="12.13" x2="41.31" transform="translate(219.42 101.73)" fill="none" stroke="#c4cefe" stroke-linecap="round" stroke-linejoin="round" stroke-width="2"/>
    <path id="Path_18" data-name="Path 18" d="M307.59,136.49l1.54-3.26a1.17,1.17,0,0,0-.66-1.59l-20.59-7.39-.9,1.63L306,137a1.16,1.16,0,0,0,1.59-.51Z" fill="#00a65a"/>
    <circle id="Ellipse_1" data-name="Ellipse 1" cx="16.68" cy="16.68" r="16.68" transform="translate(255.75 102.65)" fill="#e3e7fe"/>
    <circle id="Ellipse_2" data-name="Ellipse 2" cx="13.2" cy="13.2" r="13.2" transform="translate(259.23 106.13)" fill="#fff"/>
    <circle id="Ellipse_3" data-name="Ellipse 3" cx="16.68" cy="16.68" r="16.68" transform="translate(255.75 102.65)" fill="none" stroke="#00a65a" stroke-linecap="round" stroke-linejoin="round" stroke-width="2"/>
    <line id="Line_4" data-name="Line 4" x1="0.1" y2="9.08" transform="translate(273.06 112.63)" fill="none" stroke="#ef837a" stroke-linecap="round" stroke-linejoin="round" stroke-width="2"/>
    <line id="Line_5" data-name="Line 5" transform="translate(272.35 125.73)" fill="none" stroke="#ef837a" stroke-linecap="round" stroke-linejoin="round" stroke-width="2"/>
    <circle id="Ellipse_4" data-name="Ellipse 4" cx="0.5" cy="0.5" r="0.5" transform="translate(272.16 124.73)" fill="none" stroke="#ef837a" stroke-linecap="round" stroke-linejoin="round" stroke-width="2"/>
    <path id="Path_19" data-name="Path 19" d="M419.72,256.79c1.1,0,2-.19,1.92-.41s.8-.59,1.87-.81L436,253.06a2,2,0,0,0,1.57-2.36l-5.3-26.37a2,2,0,0,0-2.36-1.56l-12.48,2.5a2,2,0,0,1-2.36-1.56L399,143.48a2,2,0,0,0-2.35-1.57l-38.37,7.71a4.13,4.13,0,0,0-2.69,2.26l-37.88,96.76a8,8,0,0,0-.33,3.82l.47,2.37a2.56,2.56,0,0,0,2.4,2Zm-49.24-68c.37-1,.86-1,1.07.08l8.39,41.73a2,2,0,0,1-1.57,2.35l-23.84,4.79c-1.08.22-1.66-.45-1.28-1.48Z" fill="#00a65a"/>
    <path id="Path_20" data-name="Path 20" d="M167.34,256.79a2.45,2.45,0,0,0,2.33-2L172,241.15a2,2,0,0,0-1.64-2.3l-12.57-2.1a2,2,0,0,1-1.64-2.3l13.45-80.72a2,2,0,0,0-1.64-2.3L129.31,145a4.11,4.11,0,0,0-3.31,1.15l-69.81,77a7.94,7.94,0,0,0-1.67,3.45l-3.61,21.66a2,2,0,0,0,1.64,2.31L88,256.46a29.246,29.246,0,0,0,4,.33ZM126.77,186c.72-.83,1.16-.63,1,.46l-7,42a2,2,0,0,1-2.3,1.64l-24-4c-1.09-.19-1.39-1-.67-1.85Z" fill="#00a65a"/>
    <rect id="Rectangle_5" data-name="Rectangle 5" width="21.17" height="1.01" rx="0.5" transform="translate(52.39 287.03)" fill="#c4cefe"/>
    <rect id="Rectangle_6" data-name="Rectangle 6" width="21.17" height="1.01" rx="0.5" transform="translate(111.87 285.02)" fill="#c4cefe"/>
    <rect id="Rectangle_7" data-name="Rectangle 7" width="21.17" height="1.01" rx="0.5" transform="translate(156.22 278.97)" fill="#c4cefe"/>
    <rect id="Rectangle_8" data-name="Rectangle 8" width="21.17" height="1.01" rx="0.5" transform="translate(190.5 293.08)" fill="#c4cefe"/>
    <rect id="Rectangle_9" data-name="Rectangle 9" width="21.17" height="1.01" rx="0.5" transform="translate(262.07 287.03)" fill="#c4cefe"/>
    <rect id="Rectangle_10" data-name="Rectangle 10" width="21.17" height="1.01" rx="0.5" transform="translate(346.75 288.04)" fill="#c4cefe"/>
    <rect id="Rectangle_11" data-name="Rectangle 11" width="21.17" height="1.01" rx="0.5" transform="translate(81.62 269.9)" fill="#c4cefe"/>
    <rect id="Rectangle_12" data-name="Rectangle 12" width="21.17" height="1.01" rx="0.5" transform="translate(228.81 275.94)" fill="#c4cefe"/>
    <rect id="Rectangle_13" data-name="Rectangle 13" width="21.17" height="1.01" rx="0.5" transform="translate(381.03 275.94)" fill="#c4cefe"/>
    <rect id="Rectangle_14" data-name="Rectangle 14" width="21.17" height="1.01" rx="0.5" transform="translate(306.43 275.94)" fill="#c4cefe"/>
    <rect id="Rectangle_15" data-name="Rectangle 15" width="21.17" height="1.01" rx="0.5" transform="translate(407.24 285.02)" fill="#c4cefe"/>
    <path id="Path_21" data-name="Path 21" d="M51.48,256.79a1,1,0,0,1-.88,1H28.18a1,1,0,0,1-.89-1h0a1,1,0,0,1,.89-1H50.6A1,1,0,0,1,51.48,256.79Z" fill="#00a65a"/>
    <path id="Path_22" data-name="Path 22" d="M476.07,256.79a1,1,0,0,1-.89,1H452.77a1,1,0,0,1-.89-1h0a1,1,0,0,1,.89-1h22.41A1,1,0,0,1,476.07,256.79Z" fill="#00a65a"/>
    <path id="Path_23" data-name="Path 23" d="M177,24.93c6.38,0,7-9.61.61-10.13h-.89a10.81,10.81,0,0,0-3.34.52,11.21,11.21,0,0,0-22.17.35,10.37,10.37,0,0,0-4.45-1,10.21,10.21,0,0,0-2.61.34c-5.69,1.48-4.48,10,1.41,10Z" fill="#e1e6ff" opacity="0.5"/>
  </g>
</svg>
